<svg width="468" height="185" viewBox="0 0 468 185" fill="none" xmlns="http://www.w3.org/2000/svg">
<path d="M0 0H468V184.452H0V0Z" fill="#F3F2F1"/>
<rect x="49.5" y="21" width="63" height="69" fill="white"/>
<path d="M65.8428 27.1973H67.8252V35.168H71.708V37H65.8428V27.1973ZM78.1221 27.0605C78.8512 27.0605 79.5052 27.1927 80.084 27.457C80.6628 27.7168 81.1527 28.0745 81.5537 28.5303C81.9593 28.9814 82.2669 29.5146 82.4766 30.1299C82.6908 30.7406 82.7979 31.3968 82.7979 32.0986C82.7979 32.805 82.6908 33.4635 82.4766 34.0742C82.2669 34.6849 81.9593 35.2181 81.5537 35.6738C81.1527 36.1296 80.6628 36.4873 80.084 36.7471C79.5052 37.0068 78.8512 37.1367 78.1221 37.1367C77.3883 37.1367 76.7321 37.0068 76.1533 36.7471C75.5791 36.4873 75.0892 36.1296 74.6836 35.6738C74.2826 35.2181 73.9749 34.6849 73.7607 34.0742C73.5511 33.4635 73.4463 32.805 73.4463 32.0986C73.4463 31.3968 73.5511 30.7406 73.7607 30.1299C73.9749 29.5146 74.2826 28.9814 74.6836 28.5303C75.0892 28.0745 75.5791 27.7168 76.1533 27.457C76.7321 27.1927 77.3883 27.0605 78.1221 27.0605ZM78.1221 35.3457C78.5505 35.3457 78.9264 35.266 79.25 35.1064C79.5781 34.9424 79.8538 34.7168 80.0771 34.4297C80.3005 34.1426 80.4691 33.8031 80.583 33.4111C80.6969 33.0192 80.7539 32.5908 80.7539 32.126V32.0713C80.7539 31.611 80.6969 31.1849 80.583 30.793C80.4691 30.3965 80.3005 30.0547 80.0771 29.7676C79.8538 29.4805 79.5781 29.2572 79.25 29.0977C78.9264 28.9336 78.5505 28.8516 78.1221 28.8516C77.6937 28.8516 77.3154 28.9336 76.9873 29.0977C76.6592 29.2572 76.3835 29.4805 76.1602 29.7676C75.9414 30.0547 75.7751 30.3965 75.6611 30.793C75.5472 31.1849 75.4902 31.611 75.4902 32.0713V32.126C75.4902 32.5908 75.5472 33.0192 75.6611 33.4111C75.7751 33.8031 75.9414 34.1426 76.1602 34.4297C76.3835 34.7168 76.6592 34.9424 76.9873 35.1064C77.3154 35.266 77.6937 35.3457 78.1221 35.3457ZM93.3203 33.9648H93.3477L94.6807 27.1973H96.834L94.6465 37H92.2129L90.7295 29.9727L89.2734 37H86.8535L84.666 27.1973H86.8262L88.1113 33.9648H88.1387L89.6357 27.1973H91.8643L93.3203 33.9648ZM61.7061 49.1123C61.7061 48.4105 61.804 47.7542 62 47.1436C62.2005 46.5283 62.4854 45.9951 62.8545 45.5439C63.2236 45.0882 63.6725 44.7305 64.2012 44.4707C64.7298 44.2064 65.3245 44.0742 65.9854 44.0742C66.6462 44.0742 67.2409 44.2064 67.7695 44.4707C68.2982 44.7305 68.7471 45.0882 69.1162 45.5439C69.4899 45.9951 69.7747 46.5283 69.9707 47.1436C70.1712 47.7542 70.2715 48.4105 70.2715 49.1123C70.2715 49.8187 70.1712 50.4772 69.9707 51.0879C69.7747 51.6986 69.4899 52.2295 69.1162 52.6807C68.7471 53.1318 68.2982 53.4873 67.7695 53.7471C67.2409 54.0068 66.6462 54.1367 65.9854 54.1367C65.3245 54.1367 64.7298 54.0068 64.2012 53.7471C63.6725 53.4873 63.2236 53.1318 62.8545 52.6807C62.4854 52.2295 62.2005 51.6986 62 51.0879C61.804 50.4772 61.7061 49.8187 61.7061 49.1123ZM69 49.0166C69 48.5107 68.9408 48.0231 68.8223 47.5537C68.7083 47.0843 68.5283 46.6696 68.2822 46.3096C68.0361 45.9495 67.7217 45.6624 67.3389 45.4482C66.9606 45.234 66.5094 45.127 65.9854 45.127C65.4613 45.127 65.0101 45.234 64.6318 45.4482C64.2536 45.6624 63.9414 45.9495 63.6953 46.3096C63.4492 46.6696 63.2669 47.0843 63.1484 47.5537C63.0345 48.0231 62.9775 48.5107 62.9775 49.0166V49.2012C62.9775 49.707 63.0345 50.1947 63.1484 50.6641C63.2669 51.1335 63.4492 51.5482 63.6953 51.9082C63.9414 52.2637 64.2536 52.5508 64.6318 52.7695C65.0101 52.9837 65.4613 53.0908 65.9854 53.0908C66.5094 53.0908 66.9606 52.9837 67.3389 52.7695C67.7217 52.5508 68.0361 52.2637 68.2822 51.9082C68.5283 51.5482 68.7083 51.1335 68.8223 50.6641C68.9408 50.1947 69 49.707 69 49.2012V49.0166ZM77.1025 53.0908C77.458 53.0908 77.7725 53.0452 78.0459 52.9541C78.3239 52.863 78.5632 52.7422 78.7637 52.5918C78.9688 52.4414 79.1419 52.2682 79.2832 52.0723C79.4245 51.8763 79.5361 51.6735 79.6182 51.4639C79.7048 51.2497 79.7663 51.0378 79.8027 50.8281C79.8438 50.6139 79.8643 50.4157 79.8643 50.2334V49.8301H77.1162V48.8184H80.9375V54H79.8506V52.6807C79.682 52.9495 79.4906 53.1774 79.2764 53.3643C79.0622 53.5511 78.8343 53.7015 78.5928 53.8154C78.3512 53.9294 78.096 54.0114 77.8271 54.0615C77.5628 54.1117 77.2939 54.1367 77.0205 54.1367C76.3506 54.1367 75.7559 54.0068 75.2363 53.7471C74.7168 53.4873 74.277 53.1318 73.917 52.6807C73.5615 52.2295 73.2904 51.6986 73.1035 51.0879C72.9167 50.4772 72.8232 49.8187 72.8232 49.1123C72.8232 48.4105 72.9258 47.7542 73.1309 47.1436C73.3359 46.5283 73.6276 45.9951 74.0059 45.5439C74.3841 45.0882 74.8398 44.7305 75.373 44.4707C75.9108 44.2064 76.5124 44.0742 77.1777 44.0742C77.5879 44.0742 77.9753 44.1243 78.3398 44.2246C78.709 44.3203 79.0485 44.4593 79.3584 44.6416C79.6683 44.8193 79.9463 45.0335 80.1924 45.2842C80.4385 45.5303 80.6458 45.8037 80.8145 46.1045L79.7959 46.6377C79.6774 46.4098 79.5361 46.2048 79.3721 46.0225C79.208 45.8356 79.0189 45.6761 78.8047 45.5439C78.5905 45.4118 78.349 45.3092 78.0801 45.2363C77.8158 45.1634 77.5241 45.127 77.2051 45.127C76.6947 45.127 76.2458 45.2363 75.8584 45.4551C75.471 45.6693 75.1452 45.9564 74.8809 46.3164C74.6211 46.6764 74.4251 47.0934 74.293 47.5674C74.1608 48.0368 74.0947 48.5244 74.0947 49.0303V49.2012C74.0947 49.707 74.154 50.1947 74.2725 50.6641C74.3955 51.1335 74.5801 51.5482 74.8262 51.9082C75.0768 52.2637 75.3913 52.5508 75.7695 52.7695C76.1478 52.9837 76.5921 53.0908 77.1025 53.0908ZM84.2412 44.1973H87.584C88.0397 44.1973 88.4658 44.2542 88.8623 44.3682C89.2588 44.4821 89.6029 44.6598 89.8945 44.9014C90.1908 45.1383 90.4232 45.4414 90.5918 45.8105C90.7604 46.1797 90.8447 46.6172 90.8447 47.123C90.8447 47.4329 90.8014 47.7292 90.7148 48.0117C90.6283 48.2897 90.5029 48.5472 90.3389 48.7842C90.1748 49.0166 89.9697 49.224 89.7236 49.4062C89.4821 49.584 89.2041 49.7298 88.8896 49.8438L91.0293 54H89.6826L87.7275 50.083H85.4443V54H84.2412V44.1973ZM87.6523 49.0303C87.9303 49.0303 88.1878 48.9893 88.4248 48.9072C88.6618 48.8206 88.8669 48.6976 89.04 48.5381C89.2132 48.3786 89.3477 48.1826 89.4434 47.9502C89.5391 47.7178 89.5869 47.4535 89.5869 47.1572C89.5869 46.8519 89.5391 46.5807 89.4434 46.3438C89.3477 46.1022 89.2132 45.8994 89.04 45.7354C88.8669 45.5713 88.6618 45.4482 88.4248 45.3662C88.1878 45.2796 87.9303 45.2363 87.6523 45.2363H85.4443V49.0303H87.6523ZM93.9639 51.7305C94.3923 52.209 94.8525 52.5553 95.3447 52.7695C95.8415 52.9837 96.361 53.0908 96.9033 53.0908C97.277 53.0908 97.6097 53.0452 97.9014 52.9541C98.1976 52.8584 98.446 52.7285 98.6465 52.5645C98.847 52.4004 98.9974 52.2135 99.0977 52.0039C99.2025 51.7943 99.2549 51.5732 99.2549 51.3408C99.2549 51.0127 99.1865 50.7484 99.0498 50.5479C98.9131 50.3473 98.7331 50.1855 98.5098 50.0625C98.2865 49.9349 98.0267 49.8369 97.7305 49.7686C97.4388 49.6956 97.1335 49.6273 96.8145 49.5635L96.6777 49.5361C96.4635 49.4951 96.2402 49.4518 96.0078 49.4062C95.7799 49.3607 95.5544 49.3014 95.3311 49.2285C95.1077 49.151 94.8913 49.0599 94.6816 48.9551C94.472 48.8457 94.2874 48.7113 94.1279 48.5518C93.9137 48.3558 93.736 48.1165 93.5947 47.834C93.458 47.5469 93.3896 47.1937 93.3896 46.7744C93.3896 46.4782 93.4535 46.1706 93.5811 45.8516C93.7132 45.5326 93.9206 45.2409 94.2031 44.9766C94.4902 44.7122 94.8548 44.4958 95.2969 44.3271C95.7389 44.1585 96.2744 44.0742 96.9033 44.0742C97.6006 44.0742 98.2432 44.1995 98.8311 44.4502C99.0726 44.555 99.3027 44.6803 99.5215 44.8262C99.7448 44.9674 99.9635 45.1452 100.178 45.3594L99.2686 46.1045C98.9313 45.7673 98.5462 45.5212 98.1133 45.3662C97.6803 45.2067 97.2383 45.127 96.7871 45.127C96.4635 45.127 96.1673 45.1657 95.8984 45.2432C95.6341 45.3206 95.4062 45.4323 95.2148 45.5781C95.0234 45.724 94.8753 45.8926 94.7705 46.084C94.6702 46.2754 94.6201 46.4827 94.6201 46.7061C94.6201 47.016 94.6862 47.2666 94.8184 47.458C94.9551 47.6494 95.1328 47.8044 95.3516 47.9229C95.5703 48.0368 95.8164 48.1257 96.0898 48.1895C96.3678 48.2533 96.6481 48.3148 96.9307 48.374L96.999 48.3877C97.4548 48.4788 97.8945 48.5859 98.3184 48.709C98.7467 48.8275 99.1182 48.9938 99.4326 49.208C99.7516 49.4176 100.007 49.6842 100.198 50.0078C100.39 50.3268 100.485 50.7393 100.485 51.2451C100.485 51.6051 100.41 51.9606 100.26 52.3115C100.109 52.6624 99.8838 52.9746 99.583 53.248C99.2868 53.5169 98.9131 53.7334 98.4619 53.8975C98.0107 54.057 97.4798 54.1367 96.8691 54.1367C96.3952 54.1367 95.9577 54.0866 95.5566 53.9863C95.1556 53.8815 94.7865 53.7471 94.4492 53.583C94.1986 53.4508 93.9548 53.2982 93.7178 53.125C93.4854 52.9518 93.2529 52.7445 93.0205 52.5029L93.9639 51.7305Z" fill="#485B10"/>
<rect width="61" height="29" transform="translate(50.5 60)" fill="#DEE9BD"/>
<path d="M79.0054 67.6963V81H76.25V72.2051H73.8379V69.7744H74.4316C74.8275 69.7744 75.1491 69.7404 75.3965 69.6724C75.6501 69.5981 75.848 69.4868 75.9902 69.3384C76.1325 69.1899 76.2284 69.0013 76.2778 68.7725C76.3273 68.5374 76.3521 68.256 76.3521 67.9282V67.6963H79.0054ZM85.9819 69.9971C85.617 69.9971 85.2985 70.0558 85.0264 70.1733C84.7542 70.2909 84.5285 70.4548 84.3491 70.665C84.1698 70.8753 84.0368 71.1227 83.9502 71.4072C83.8636 71.6855 83.8203 71.9886 83.8203 72.3164L81.0649 72.0659C81.0711 71.3361 81.201 70.6898 81.4546 70.127C81.7082 69.5579 82.0545 69.0817 82.4937 68.6982C82.9328 68.3086 83.4492 68.0148 84.043 67.8169C84.6429 67.6128 85.2954 67.5107 86.0005 67.5107C86.7365 67.5107 87.4076 67.6221 88.0137 67.8447C88.626 68.0612 89.1486 68.3674 89.5815 68.7632C90.0145 69.159 90.3485 69.6353 90.5835 70.1919C90.8247 70.7424 90.9453 71.3485 90.9453 72.0103C90.9453 72.7339 90.8 73.4111 90.5093 74.042C90.2248 74.6667 89.8444 75.248 89.3682 75.7861C88.8919 76.318 88.3446 76.8066 87.7261 77.252C87.1076 77.6911 86.4705 78.0869 85.8149 78.4395L85.5645 78.5693H91.1123V81H81.4082V78.5879C81.9092 78.3158 82.4194 78.0251 82.939 77.7158C83.4647 77.4066 83.9718 77.085 84.4604 76.751C84.9552 76.4108 85.4222 76.0583 85.8613 75.6934C86.3005 75.3285 86.6808 74.9512 87.0024 74.5615C87.3302 74.1657 87.59 73.7606 87.7817 73.3462C87.9735 72.9256 88.0693 72.4927 88.0693 72.0474C88.0693 71.7938 88.026 71.5433 87.9395 71.2959C87.8529 71.0485 87.723 70.8289 87.5498 70.6372C87.3828 70.4455 87.1663 70.2909 86.9004 70.1733C86.6406 70.0558 86.3345 69.9971 85.9819 69.9971Z" fill="#0B0C0C"/>
<rect x="49.5" y="21" width="63" height="69" stroke="#85994B" stroke-width="2"/>
<path d="M91.0267 91H69L80.0133 115L91.0267 91Z" fill="#85994B"/>
<path d="M91.0267 87H69L80.0133 111L91.0267 87Z" fill="#DEE9BD"/>
<path fill-rule="evenodd" clip-rule="evenodd" d="M29.9965 137.452L29.9965 115L30.9965 115L30.9965 137.452L29.9965 137.452Z" fill="black"/>
<path d="M23.9808 156.397C24.3454 156.397 24.6839 156.301 24.9964 156.108C25.3142 155.915 25.585 155.639 25.8089 155.28C26.0381 154.915 26.2178 154.47 26.348 153.944C26.4782 153.413 26.5433 152.811 26.5433 152.139V151.577C26.5433 150.905 26.4782 150.306 26.348 149.78C26.2178 149.254 26.0381 148.808 25.8089 148.444C25.585 148.079 25.3142 147.803 24.9964 147.616C24.6839 147.423 24.3454 147.327 23.9808 147.327C23.611 147.327 23.2699 147.423 22.9574 147.616C22.6449 147.803 22.3741 148.079 22.1449 148.444C21.9209 148.808 21.7438 149.254 21.6136 149.78C21.4834 150.306 21.4183 150.905 21.4183 151.577V152.139C21.4183 152.811 21.4834 153.413 21.6136 153.944C21.7438 154.47 21.9209 154.915 22.1449 155.28C22.3741 155.639 22.6449 155.915 22.9574 156.108C23.2699 156.301 23.611 156.397 23.9808 156.397ZM23.9808 146.108C24.46 146.108 24.8923 146.183 25.2777 146.334C25.6631 146.485 26.0017 146.694 26.2933 146.959C26.5902 147.22 26.8428 147.532 27.0511 147.897C27.2647 148.261 27.4392 148.657 27.5746 149.084C27.71 149.506 27.8089 149.954 27.8714 150.428C27.9339 150.902 27.9652 151.381 27.9652 151.866C27.9652 152.35 27.9339 152.829 27.8714 153.303C27.8089 153.772 27.71 154.22 27.5746 154.647C27.4392 155.069 27.2647 155.462 27.0511 155.827C26.8428 156.186 26.5902 156.498 26.2933 156.764C26.0017 157.03 25.6631 157.238 25.2777 157.389C24.8923 157.535 24.46 157.608 23.9808 157.608C23.5017 157.608 23.0694 157.535 22.6839 157.389C22.2985 157.238 21.9574 157.03 21.6605 156.764C21.3688 156.498 21.1162 156.186 20.9027 155.827C20.6944 155.462 20.5225 155.069 20.3871 154.647C20.2517 154.22 20.1527 153.772 20.0902 153.303C20.0277 152.829 19.9964 152.35 19.9964 151.866C19.9964 151.381 20.0277 150.902 20.0902 150.428C20.1527 149.954 20.2517 149.506 20.3871 149.084C20.5225 148.657 20.6944 148.261 20.9027 147.897C21.1162 147.532 21.3688 147.22 21.6605 146.959C21.9574 146.694 22.2985 146.485 22.6839 146.334C23.0694 146.183 23.5017 146.108 23.9808 146.108ZM38.2386 146.248H39.5199L32.6996 157.452H31.4183L38.2386 146.248ZM32.4574 151.373C32.0876 151.373 31.7412 151.306 31.4183 151.17C31.1006 151.035 30.8194 150.85 30.5746 150.616C30.335 150.376 30.1449 150.095 30.0043 149.772C29.8688 149.449 29.8011 149.103 29.8011 148.733C29.8011 148.363 29.8688 148.019 30.0043 147.702C30.1449 147.379 30.335 147.1 30.5746 146.866C30.8194 146.631 31.1006 146.446 31.4183 146.311C31.7412 146.176 32.0876 146.108 32.4574 146.108C32.8324 146.108 33.1813 146.176 33.5043 146.311C33.8272 146.446 34.1084 146.631 34.348 146.866C34.5928 147.1 34.7829 147.379 34.9183 147.702C35.0589 148.019 35.1293 148.363 35.1293 148.733C35.1293 149.103 35.0589 149.449 34.9183 149.772C34.7829 150.095 34.5928 150.376 34.348 150.616C34.1084 150.85 33.8272 151.035 33.5043 151.17C33.1813 151.306 32.8324 151.373 32.4574 151.373ZM32.4574 147.241C32.2438 147.241 32.0485 147.277 31.8714 147.35C31.6996 147.423 31.5511 147.527 31.4261 147.663C31.3011 147.793 31.2048 147.949 31.1371 148.131C31.0694 148.314 31.0355 148.514 31.0355 148.733C31.0355 148.946 31.0694 149.147 31.1371 149.334C31.2048 149.517 31.3011 149.676 31.4261 149.811C31.5511 149.941 31.6996 150.045 31.8714 150.123C32.0485 150.196 32.2438 150.233 32.4574 150.233C32.6761 150.233 32.8741 150.196 33.0511 150.123C33.2334 150.045 33.3871 149.941 33.5121 149.811C33.6371 149.676 33.7334 149.517 33.8011 149.334C33.8688 149.147 33.9027 148.946 33.9027 148.733C33.9027 148.514 33.8688 148.314 33.8011 148.131C33.7334 147.949 33.6371 147.793 33.5121 147.663C33.3871 147.527 33.2334 147.423 33.0511 147.35C32.8741 147.277 32.6761 147.241 32.4574 147.241ZM38.5589 157.608C38.1892 157.608 37.8428 157.54 37.5199 157.405C37.197 157.269 36.9157 157.084 36.6761 156.85C36.4366 156.61 36.2464 156.332 36.1058 156.014C35.9704 155.691 35.9027 155.345 35.9027 154.975C35.9027 154.605 35.9704 154.261 36.1058 153.944C36.2464 153.621 36.4366 153.342 36.6761 153.108C36.9157 152.873 37.197 152.689 37.5199 152.553C37.8428 152.418 38.1892 152.35 38.5589 152.35C38.9287 152.35 39.2751 152.418 39.598 152.553C39.9261 152.689 40.21 152.873 40.4496 153.108C40.6944 153.342 40.8845 153.621 41.0199 153.944C41.1605 154.261 41.2308 154.605 41.2308 154.975C41.2308 155.345 41.1605 155.691 41.0199 156.014C40.8845 156.332 40.6944 156.61 40.4496 156.85C40.21 157.084 39.9261 157.269 39.598 157.405C39.2751 157.54 38.9287 157.608 38.5589 157.608ZM38.5589 153.483C38.3402 153.483 38.1423 153.519 37.9652 153.592C37.7933 153.665 37.6449 153.769 37.5199 153.905C37.3949 154.035 37.2985 154.191 37.2308 154.373C37.1631 154.556 37.1293 154.756 37.1293 154.975C37.1293 155.189 37.1631 155.389 37.2308 155.577C37.2985 155.759 37.3949 155.918 37.5199 156.053C37.6449 156.183 37.7933 156.288 37.9652 156.366C38.1423 156.439 38.3402 156.475 38.5589 156.475C38.7777 156.475 38.9756 156.439 39.1527 156.366C39.3298 156.288 39.4808 156.183 39.6058 156.053C39.7308 155.918 39.8272 155.759 39.8949 155.577C39.9626 155.389 39.9964 155.189 39.9964 154.975C39.9964 154.756 39.9626 154.556 39.8949 154.373C39.8272 154.191 39.7308 154.035 39.6058 153.905C39.4808 153.769 39.3298 153.665 39.1527 153.592C38.9756 153.519 38.7777 153.483 38.5589 153.483Z" fill="#0B0C0C"/>
<rect x="30.9929" y="115" width="101.007" height="10" fill="#85994B"/>
<path d="M70.2054 128.598H71.2367V136.074H74.5941V137H70.2054V128.598ZM75.2797 132.811C75.2797 132.209 75.3636 131.646 75.5316 131.123C75.7035 130.596 75.9476 130.139 76.264 129.752C76.5804 129.361 76.9652 129.055 77.4183 128.832C77.8715 128.605 78.3812 128.492 78.9476 128.492C79.514 128.492 80.0238 128.605 80.4769 128.832C80.93 129.055 81.3148 129.361 81.6312 129.752C81.9515 130.139 82.1957 130.596 82.3636 131.123C82.5355 131.646 82.6215 132.209 82.6215 132.811C82.6215 133.416 82.5355 133.98 82.3636 134.504C82.1957 135.027 81.9515 135.482 81.6312 135.869C81.3148 136.256 80.93 136.561 80.4769 136.783C80.0238 137.006 79.514 137.117 78.9476 137.117C78.3812 137.117 77.8715 137.006 77.4183 136.783C76.9652 136.561 76.5804 136.256 76.264 135.869C75.9476 135.482 75.7035 135.027 75.5316 134.504C75.3636 133.98 75.2797 133.416 75.2797 132.811ZM81.5316 132.729C81.5316 132.295 81.4808 131.877 81.3793 131.475C81.2816 131.072 81.1273 130.717 80.9164 130.408C80.7054 130.1 80.4359 129.854 80.1078 129.67C79.7836 129.486 79.3968 129.395 78.9476 129.395C78.4984 129.395 78.1117 129.486 77.7875 129.67C77.4632 129.854 77.1957 130.1 76.9847 130.408C76.7738 130.717 76.6175 131.072 76.516 131.475C76.4183 131.877 76.3695 132.295 76.3695 132.729V132.887C76.3695 133.32 76.4183 133.738 76.516 134.141C76.6175 134.543 76.7738 134.898 76.9847 135.207C77.1957 135.512 77.4632 135.758 77.7875 135.945C78.1117 136.129 78.4984 136.221 78.9476 136.221C79.3968 136.221 79.7836 136.129 80.1078 135.945C80.4359 135.758 80.7054 135.512 80.9164 135.207C81.1273 134.898 81.2816 134.543 81.3793 134.141C81.4808 133.738 81.5316 133.32 81.5316 132.887V132.729ZM90.8773 135.512H90.9359L92.3656 128.598H93.4203L91.5511 137H90.3265L88.5394 130.139L86.7582 137H85.5277L83.6644 128.598H84.7074L86.1605 135.512H86.2308L88.059 128.598H89.055L90.8773 135.512Z" fill="#505A5F"/>
<path fill-rule="evenodd" clip-rule="evenodd" d="M132 137.452L132 115L133 115L133 137.452L132 137.452Z" fill="black"/>
<path d="M119.422 156.248H125.008V157.452H117.547V156.139C118.26 155.66 118.904 155.217 119.477 154.811C120.049 154.405 120.555 154.022 120.992 153.663C121.43 153.298 121.805 152.952 122.117 152.623C122.435 152.295 122.695 151.97 122.898 151.647C123.102 151.324 123.25 150.998 123.344 150.67C123.438 150.342 123.484 149.996 123.484 149.631C123.484 149.319 123.43 149.022 123.32 148.741C123.216 148.459 123.062 148.215 122.859 148.006C122.661 147.793 122.414 147.623 122.117 147.498C121.826 147.373 121.492 147.311 121.117 147.311C120.815 147.311 120.523 147.355 120.242 147.444C119.966 147.527 119.719 147.663 119.5 147.85C119.286 148.038 119.112 148.28 118.977 148.577C118.841 148.868 118.766 149.22 118.75 149.631L117.453 149.483C117.474 148.962 117.576 148.493 117.758 148.077C117.94 147.66 118.19 147.306 118.508 147.014C118.831 146.722 119.214 146.498 119.656 146.342C120.104 146.186 120.602 146.108 121.148 146.108C121.68 146.108 122.172 146.196 122.625 146.373C123.083 146.545 123.479 146.788 123.812 147.1C124.151 147.413 124.414 147.782 124.602 148.209C124.794 148.636 124.891 149.103 124.891 149.608C124.891 150.207 124.786 150.769 124.578 151.295C124.375 151.821 124.062 152.34 123.641 152.85C123.219 153.355 122.682 153.866 122.031 154.381C121.385 154.897 120.622 155.441 119.742 156.014L119.422 156.217V156.248ZM127.195 151.756L127.781 146.248H134.18V147.452H128.891L128.555 150.639C128.857 150.347 129.219 150.129 129.641 149.983C130.062 149.832 130.495 149.756 130.938 149.756C131.469 149.756 131.958 149.855 132.406 150.053C132.859 150.246 133.25 150.514 133.578 150.858C133.911 151.202 134.169 151.608 134.352 152.077C134.539 152.545 134.633 153.051 134.633 153.592C134.633 154.196 134.534 154.746 134.336 155.241C134.143 155.735 133.87 156.16 133.516 156.514C133.161 156.863 132.74 157.134 132.25 157.327C131.76 157.514 131.221 157.608 130.633 157.608C130.169 157.608 129.729 157.556 129.312 157.452C128.901 157.342 128.529 157.181 128.195 156.967C127.862 156.748 127.576 156.48 127.336 156.163C127.102 155.84 126.935 155.465 126.836 155.038L128.203 154.748C128.26 154.972 128.357 155.186 128.492 155.389C128.628 155.587 128.799 155.764 129.008 155.92C129.216 156.071 129.456 156.191 129.727 156.28C129.997 156.368 130.299 156.413 130.633 156.413C131.034 156.413 131.393 156.345 131.711 156.209C132.029 156.074 132.297 155.886 132.516 155.647C132.734 155.402 132.901 155.113 133.016 154.78C133.135 154.446 133.195 154.084 133.195 153.694C133.195 153.288 133.135 152.918 133.016 152.584C132.901 152.251 132.732 151.965 132.508 151.725C132.289 151.48 132.021 151.293 131.703 151.163C131.385 151.027 131.023 150.959 130.617 150.959C130.424 150.959 130.227 150.983 130.023 151.03C129.826 151.077 129.633 151.142 129.445 151.225C129.263 151.308 129.091 151.41 128.93 151.53C128.768 151.649 128.63 151.782 128.516 151.928L127.195 151.756ZM144.711 146.248H145.992L139.172 157.452H137.891L144.711 146.248ZM138.93 151.373C138.56 151.373 138.214 151.306 137.891 151.17C137.573 151.035 137.292 150.85 137.047 150.616C136.807 150.376 136.617 150.095 136.477 149.772C136.341 149.449 136.273 149.103 136.273 148.733C136.273 148.363 136.341 148.019 136.477 147.702C136.617 147.379 136.807 147.1 137.047 146.866C137.292 146.631 137.573 146.446 137.891 146.311C138.214 146.176 138.56 146.108 138.93 146.108C139.305 146.108 139.654 146.176 139.977 146.311C140.299 146.446 140.581 146.631 140.82 146.866C141.065 147.1 141.255 147.379 141.391 147.702C141.531 148.019 141.602 148.363 141.602 148.733C141.602 149.103 141.531 149.449 141.391 149.772C141.255 150.095 141.065 150.376 140.82 150.616C140.581 150.85 140.299 151.035 139.977 151.17C139.654 151.306 139.305 151.373 138.93 151.373ZM138.93 147.241C138.716 147.241 138.521 147.277 138.344 147.35C138.172 147.423 138.023 147.527 137.898 147.663C137.773 147.793 137.677 147.949 137.609 148.131C137.542 148.314 137.508 148.514 137.508 148.733C137.508 148.946 137.542 149.147 137.609 149.334C137.677 149.517 137.773 149.676 137.898 149.811C138.023 149.941 138.172 150.045 138.344 150.123C138.521 150.196 138.716 150.233 138.93 150.233C139.148 150.233 139.346 150.196 139.523 150.123C139.706 150.045 139.859 149.941 139.984 149.811C140.109 149.676 140.206 149.517 140.273 149.334C140.341 149.147 140.375 148.946 140.375 148.733C140.375 148.514 140.341 148.314 140.273 148.131C140.206 147.949 140.109 147.793 139.984 147.663C139.859 147.527 139.706 147.423 139.523 147.35C139.346 147.277 139.148 147.241 138.93 147.241ZM145.031 157.608C144.661 157.608 144.315 157.54 143.992 157.405C143.669 157.269 143.388 157.084 143.148 156.85C142.909 156.61 142.719 156.332 142.578 156.014C142.443 155.691 142.375 155.345 142.375 154.975C142.375 154.605 142.443 154.261 142.578 153.944C142.719 153.621 142.909 153.342 143.148 153.108C143.388 152.873 143.669 152.689 143.992 152.553C144.315 152.418 144.661 152.35 145.031 152.35C145.401 152.35 145.747 152.418 146.07 152.553C146.398 152.689 146.682 152.873 146.922 153.108C147.167 153.342 147.357 153.621 147.492 153.944C147.633 154.261 147.703 154.605 147.703 154.975C147.703 155.345 147.633 155.691 147.492 156.014C147.357 156.332 147.167 156.61 146.922 156.85C146.682 157.084 146.398 157.269 146.07 157.405C145.747 157.54 145.401 157.608 145.031 157.608ZM145.031 153.483C144.812 153.483 144.615 153.519 144.438 153.592C144.266 153.665 144.117 153.769 143.992 153.905C143.867 154.035 143.771 154.191 143.703 154.373C143.635 154.556 143.602 154.756 143.602 154.975C143.602 155.189 143.635 155.389 143.703 155.577C143.771 155.759 143.867 155.918 143.992 156.053C144.117 156.183 144.266 156.288 144.438 156.366C144.615 156.439 144.812 156.475 145.031 156.475C145.25 156.475 145.448 156.439 145.625 156.366C145.802 156.288 145.953 156.183 146.078 156.053C146.203 155.918 146.299 155.759 146.367 155.577C146.435 155.389 146.469 155.189 146.469 154.975C146.469 154.756 146.435 154.556 146.367 154.373C146.299 154.191 146.203 154.035 146.078 153.905C145.953 153.769 145.802 153.665 145.625 153.592C145.448 153.519 145.25 153.483 145.031 153.483Z" fill="#0B0C0C"/>
<rect x="133" y="115" width="101" height="10" fill="#F47738"/>
<path d="M167.521 128.598H168.793V137H167.75V129.816L164.879 133.736H164.867L161.979 129.822V137H160.971V128.598H162.283L164.896 132.172L167.521 128.598ZM171.107 128.598H176.135V129.488H172.139V132.248H175.807V133.139H172.139V136.109H176.363V137H171.107V128.598ZM184.666 132.799C184.666 133.428 184.588 134.002 184.432 134.521C184.275 135.037 184.037 135.479 183.717 135.846C183.396 136.213 182.994 136.498 182.51 136.701C182.029 136.9 181.463 137 180.811 137H178.115V128.598H180.811C181.463 128.598 182.029 128.699 182.51 128.902C182.994 129.102 183.396 129.385 183.717 129.752C184.037 130.119 184.275 130.562 184.432 131.082C184.588 131.598 184.666 132.17 184.666 132.799ZM183.559 132.635C183.559 132.197 183.504 131.787 183.395 131.404C183.285 131.021 183.117 130.689 182.891 130.408C182.668 130.123 182.381 129.898 182.029 129.734C181.682 129.57 181.268 129.488 180.787 129.488H179.146V136.109H180.787C181.268 136.109 181.682 136.029 182.029 135.869C182.381 135.705 182.668 135.482 182.891 135.201C183.117 134.916 183.285 134.582 183.395 134.199C183.504 133.816 183.559 133.406 183.559 132.969V132.635ZM186.518 128.598H187.549V137H186.518V128.598ZM192.869 136.221C193.143 136.221 193.404 136.178 193.654 136.092C193.908 136.002 194.131 135.865 194.322 135.682C194.518 135.498 194.674 135.266 194.791 134.984C194.908 134.699 194.967 134.359 194.967 133.965V128.598H195.975V134.105C195.975 134.566 195.895 134.982 195.734 135.354C195.574 135.725 195.355 136.041 195.078 136.303C194.801 136.564 194.473 136.766 194.094 136.906C193.715 137.047 193.307 137.117 192.869 137.117C192.436 137.117 192.029 137.047 191.65 136.906C191.275 136.766 190.947 136.564 190.666 136.303C190.389 136.041 190.17 135.725 190.01 135.354C189.85 134.982 189.77 134.566 189.77 134.105V128.598H190.789V133.965C190.789 134.359 190.846 134.699 190.959 134.984C191.076 135.266 191.23 135.498 191.422 135.682C191.613 135.865 191.834 136.002 192.084 136.092C192.338 136.178 192.6 136.221 192.869 136.221ZM204.752 128.598H206.023V137H204.98V129.816L202.109 133.736H202.098L199.209 129.822V137H198.201V128.598H199.514L202.127 132.172L204.752 128.598Z" fill="#505A5F"/>
<path fill-rule="evenodd" clip-rule="evenodd" d="M234 137.452L234 115L235 115L235 137.452L234 137.452Z" fill="black"/>
<path d="M219.406 151.756L219.992 146.248H226.391V147.452H221.102L220.766 150.639C221.068 150.347 221.43 150.129 221.852 149.983C222.273 149.832 222.706 149.756 223.148 149.756C223.68 149.756 224.169 149.855 224.617 150.053C225.07 150.246 225.461 150.514 225.789 150.858C226.122 151.202 226.38 151.608 226.562 152.077C226.75 152.545 226.844 153.051 226.844 153.592C226.844 154.196 226.745 154.746 226.547 155.241C226.354 155.735 226.081 156.16 225.727 156.514C225.372 156.863 224.951 157.134 224.461 157.327C223.971 157.514 223.432 157.608 222.844 157.608C222.38 157.608 221.94 157.556 221.523 157.452C221.112 157.342 220.74 157.181 220.406 156.967C220.073 156.748 219.786 156.48 219.547 156.163C219.312 155.84 219.146 155.465 219.047 155.038L220.414 154.748C220.471 154.972 220.568 155.186 220.703 155.389C220.839 155.587 221.01 155.764 221.219 155.92C221.427 156.071 221.667 156.191 221.938 156.28C222.208 156.368 222.51 156.413 222.844 156.413C223.245 156.413 223.604 156.345 223.922 156.209C224.24 156.074 224.508 155.886 224.727 155.647C224.945 155.402 225.112 155.113 225.227 154.78C225.346 154.446 225.406 154.084 225.406 153.694C225.406 153.288 225.346 152.918 225.227 152.584C225.112 152.251 224.943 151.965 224.719 151.725C224.5 151.48 224.232 151.293 223.914 151.163C223.596 151.027 223.234 150.959 222.828 150.959C222.635 150.959 222.438 150.983 222.234 151.03C222.036 151.077 221.844 151.142 221.656 151.225C221.474 151.308 221.302 151.41 221.141 151.53C220.979 151.649 220.841 151.782 220.727 151.928L219.406 151.756ZM232.711 156.397C233.076 156.397 233.414 156.301 233.727 156.108C234.044 155.915 234.315 155.639 234.539 155.28C234.768 154.915 234.948 154.47 235.078 153.944C235.208 153.413 235.273 152.811 235.273 152.139V151.577C235.273 150.905 235.208 150.306 235.078 149.78C234.948 149.254 234.768 148.808 234.539 148.444C234.315 148.079 234.044 147.803 233.727 147.616C233.414 147.423 233.076 147.327 232.711 147.327C232.341 147.327 232 147.423 231.688 147.616C231.375 147.803 231.104 148.079 230.875 148.444C230.651 148.808 230.474 149.254 230.344 149.78C230.214 150.306 230.148 150.905 230.148 151.577V152.139C230.148 152.811 230.214 153.413 230.344 153.944C230.474 154.47 230.651 154.915 230.875 155.28C231.104 155.639 231.375 155.915 231.688 156.108C232 156.301 232.341 156.397 232.711 156.397ZM232.711 146.108C233.19 146.108 233.622 146.183 234.008 146.334C234.393 146.485 234.732 146.694 235.023 146.959C235.32 147.22 235.573 147.532 235.781 147.897C235.995 148.261 236.169 148.657 236.305 149.084C236.44 149.506 236.539 149.954 236.602 150.428C236.664 150.902 236.695 151.381 236.695 151.866C236.695 152.35 236.664 152.829 236.602 153.303C236.539 153.772 236.44 154.22 236.305 154.647C236.169 155.069 235.995 155.462 235.781 155.827C235.573 156.186 235.32 156.498 235.023 156.764C234.732 157.03 234.393 157.238 234.008 157.389C233.622 157.535 233.19 157.608 232.711 157.608C232.232 157.608 231.799 157.535 231.414 157.389C231.029 157.238 230.688 157.03 230.391 156.764C230.099 156.498 229.846 156.186 229.633 155.827C229.424 155.462 229.253 155.069 229.117 154.647C228.982 154.22 228.883 153.772 228.82 153.303C228.758 152.829 228.727 152.35 228.727 151.866C228.727 151.381 228.758 150.902 228.82 150.428C228.883 149.954 228.982 149.506 229.117 149.084C229.253 148.657 229.424 148.261 229.633 147.897C229.846 147.532 230.099 147.22 230.391 146.959C230.688 146.694 231.029 146.485 231.414 146.334C231.799 146.183 232.232 146.108 232.711 146.108ZM246.969 146.248H248.25L241.43 157.452H240.148L246.969 146.248ZM241.188 151.373C240.818 151.373 240.471 151.306 240.148 151.17C239.831 151.035 239.549 150.85 239.305 150.616C239.065 150.376 238.875 150.095 238.734 149.772C238.599 149.449 238.531 149.103 238.531 148.733C238.531 148.363 238.599 148.019 238.734 147.702C238.875 147.379 239.065 147.1 239.305 146.866C239.549 146.631 239.831 146.446 240.148 146.311C240.471 146.176 240.818 146.108 241.188 146.108C241.562 146.108 241.911 146.176 242.234 146.311C242.557 146.446 242.839 146.631 243.078 146.866C243.323 147.1 243.513 147.379 243.648 147.702C243.789 148.019 243.859 148.363 243.859 148.733C243.859 149.103 243.789 149.449 243.648 149.772C243.513 150.095 243.323 150.376 243.078 150.616C242.839 150.85 242.557 151.035 242.234 151.17C241.911 151.306 241.562 151.373 241.188 151.373ZM241.188 147.241C240.974 147.241 240.779 147.277 240.602 147.35C240.43 147.423 240.281 147.527 240.156 147.663C240.031 147.793 239.935 147.949 239.867 148.131C239.799 148.314 239.766 148.514 239.766 148.733C239.766 148.946 239.799 149.147 239.867 149.334C239.935 149.517 240.031 149.676 240.156 149.811C240.281 149.941 240.43 150.045 240.602 150.123C240.779 150.196 240.974 150.233 241.188 150.233C241.406 150.233 241.604 150.196 241.781 150.123C241.964 150.045 242.117 149.941 242.242 149.811C242.367 149.676 242.464 149.517 242.531 149.334C242.599 149.147 242.633 148.946 242.633 148.733C242.633 148.514 242.599 148.314 242.531 148.131C242.464 147.949 242.367 147.793 242.242 147.663C242.117 147.527 241.964 147.423 241.781 147.35C241.604 147.277 241.406 147.241 241.188 147.241ZM247.289 157.608C246.919 157.608 246.573 157.54 246.25 157.405C245.927 157.269 245.646 157.084 245.406 156.85C245.167 156.61 244.977 156.332 244.836 156.014C244.701 155.691 244.633 155.345 244.633 154.975C244.633 154.605 244.701 154.261 244.836 153.944C244.977 153.621 245.167 153.342 245.406 153.108C245.646 152.873 245.927 152.689 246.25 152.553C246.573 152.418 246.919 152.35 247.289 152.35C247.659 152.35 248.005 152.418 248.328 152.553C248.656 152.689 248.94 152.873 249.18 153.108C249.424 153.342 249.615 153.621 249.75 153.944C249.891 154.261 249.961 154.605 249.961 154.975C249.961 155.345 249.891 155.691 249.75 156.014C249.615 156.332 249.424 156.61 249.18 156.85C248.94 157.084 248.656 157.269 248.328 157.405C248.005 157.54 247.659 157.608 247.289 157.608ZM247.289 153.483C247.07 153.483 246.872 153.519 246.695 153.592C246.523 153.665 246.375 153.769 246.25 153.905C246.125 154.035 246.029 154.191 245.961 154.373C245.893 154.556 245.859 154.756 245.859 154.975C245.859 155.189 245.893 155.389 245.961 155.577C246.029 155.759 246.125 155.918 246.25 156.053C246.375 156.183 246.523 156.288 246.695 156.366C246.872 156.439 247.07 156.475 247.289 156.475C247.508 156.475 247.706 156.439 247.883 156.366C248.06 156.288 248.211 156.183 248.336 156.053C248.461 155.918 248.557 155.759 248.625 155.577C248.693 155.389 248.727 155.189 248.727 154.975C248.727 154.756 248.693 154.556 248.625 154.373C248.557 154.191 248.461 154.035 248.336 153.905C248.211 153.769 248.06 153.665 247.883 153.592C247.706 153.519 247.508 153.483 247.289 153.483Z" fill="#0B0C0C"/>
<rect x="235" y="115" width="100" height="10" fill="#D4351C"/>
<path d="M276.92 133.139H272.496V137H271.465V128.598H272.496V132.248H276.92V128.598H277.957V137H276.92V133.139ZM280.266 128.598H281.297V137H280.266V128.598ZM286.781 136.221C287.086 136.221 287.355 136.182 287.59 136.104C287.828 136.025 288.033 135.922 288.205 135.793C288.381 135.664 288.529 135.516 288.65 135.348C288.771 135.18 288.867 135.006 288.938 134.826C289.012 134.643 289.064 134.461 289.096 134.281C289.131 134.098 289.148 133.928 289.148 133.771V133.426H286.793V132.559H290.068V137H289.137V135.869C288.992 136.1 288.828 136.295 288.645 136.455C288.461 136.615 288.266 136.744 288.059 136.842C287.852 136.939 287.633 137.01 287.402 137.053C287.176 137.096 286.945 137.117 286.711 137.117C286.137 137.117 285.627 137.006 285.182 136.783C284.736 136.561 284.359 136.256 284.051 135.869C283.746 135.482 283.514 135.027 283.354 134.504C283.193 133.98 283.113 133.416 283.113 132.811C283.113 132.209 283.201 131.646 283.377 131.123C283.553 130.596 283.803 130.139 284.127 129.752C284.451 129.361 284.842 129.055 285.299 128.832C285.76 128.605 286.275 128.492 286.846 128.492C287.197 128.492 287.529 128.535 287.842 128.621C288.158 128.703 288.449 128.822 288.715 128.979C288.98 129.131 289.219 129.314 289.43 129.529C289.641 129.74 289.818 129.975 289.963 130.232L289.09 130.689C288.988 130.494 288.867 130.318 288.727 130.162C288.586 130.002 288.424 129.865 288.24 129.752C288.057 129.639 287.85 129.551 287.619 129.488C287.393 129.426 287.143 129.395 286.869 129.395C286.432 129.395 286.047 129.488 285.715 129.676C285.383 129.859 285.104 130.105 284.877 130.414C284.654 130.723 284.486 131.08 284.373 131.486C284.26 131.889 284.203 132.307 284.203 132.74V132.887C284.203 133.32 284.254 133.738 284.355 134.141C284.461 134.543 284.619 134.898 284.83 135.207C285.045 135.512 285.314 135.758 285.639 135.945C285.963 136.129 286.344 136.221 286.781 136.221ZM297.498 133.139H293.074V137H292.043V128.598H293.074V132.248H297.498V128.598H298.535V137H297.498V133.139Z" fill="#505A5F"/>
<path fill-rule="evenodd" clip-rule="evenodd" d="M335 137.452L335 115L336 115L336 137.452L335 137.452Z" fill="black"/>
<path d="M326.562 147.498H320.625V146.248H327.969V147.498L323.805 157.452H322.273L326.562 147.498ZM329.656 151.756L330.242 146.248H336.641V147.452H331.352L331.016 150.639C331.318 150.347 331.68 150.129 332.102 149.983C332.523 149.832 332.956 149.756 333.398 149.756C333.93 149.756 334.419 149.855 334.867 150.053C335.32 150.246 335.711 150.514 336.039 150.858C336.372 151.202 336.63 151.608 336.812 152.077C337 152.545 337.094 153.051 337.094 153.592C337.094 154.196 336.995 154.746 336.797 155.241C336.604 155.735 336.331 156.16 335.977 156.514C335.622 156.863 335.201 157.134 334.711 157.327C334.221 157.514 333.682 157.608 333.094 157.608C332.63 157.608 332.19 157.556 331.773 157.452C331.362 157.342 330.99 157.181 330.656 156.967C330.323 156.748 330.036 156.48 329.797 156.163C329.562 155.84 329.396 155.465 329.297 155.038L330.664 154.748C330.721 154.972 330.818 155.186 330.953 155.389C331.089 155.587 331.26 155.764 331.469 155.92C331.677 156.071 331.917 156.191 332.188 156.28C332.458 156.368 332.76 156.413 333.094 156.413C333.495 156.413 333.854 156.345 334.172 156.209C334.49 156.074 334.758 155.886 334.977 155.647C335.195 155.402 335.362 155.113 335.477 154.78C335.596 154.446 335.656 154.084 335.656 153.694C335.656 153.288 335.596 152.918 335.477 152.584C335.362 152.251 335.193 151.965 334.969 151.725C334.75 151.48 334.482 151.293 334.164 151.163C333.846 151.027 333.484 150.959 333.078 150.959C332.885 150.959 332.688 150.983 332.484 151.03C332.286 151.077 332.094 151.142 331.906 151.225C331.724 151.308 331.552 151.41 331.391 151.53C331.229 151.649 331.091 151.782 330.977 151.928L329.656 151.756ZM347.172 146.248H348.453L341.633 157.452H340.352L347.172 146.248ZM341.391 151.373C341.021 151.373 340.674 151.306 340.352 151.17C340.034 151.035 339.753 150.85 339.508 150.616C339.268 150.376 339.078 150.095 338.938 149.772C338.802 149.449 338.734 149.103 338.734 148.733C338.734 148.363 338.802 148.019 338.938 147.702C339.078 147.379 339.268 147.1 339.508 146.866C339.753 146.631 340.034 146.446 340.352 146.311C340.674 146.176 341.021 146.108 341.391 146.108C341.766 146.108 342.115 146.176 342.438 146.311C342.76 146.446 343.042 146.631 343.281 146.866C343.526 147.1 343.716 147.379 343.852 147.702C343.992 148.019 344.062 148.363 344.062 148.733C344.062 149.103 343.992 149.449 343.852 149.772C343.716 150.095 343.526 150.376 343.281 150.616C343.042 150.85 342.76 151.035 342.438 151.17C342.115 151.306 341.766 151.373 341.391 151.373ZM341.391 147.241C341.177 147.241 340.982 147.277 340.805 147.35C340.633 147.423 340.484 147.527 340.359 147.663C340.234 147.793 340.138 147.949 340.07 148.131C340.003 148.314 339.969 148.514 339.969 148.733C339.969 148.946 340.003 149.147 340.07 149.334C340.138 149.517 340.234 149.676 340.359 149.811C340.484 149.941 340.633 150.045 340.805 150.123C340.982 150.196 341.177 150.233 341.391 150.233C341.609 150.233 341.807 150.196 341.984 150.123C342.167 150.045 342.32 149.941 342.445 149.811C342.57 149.676 342.667 149.517 342.734 149.334C342.802 149.147 342.836 148.946 342.836 148.733C342.836 148.514 342.802 148.314 342.734 148.131C342.667 147.949 342.57 147.793 342.445 147.663C342.32 147.527 342.167 147.423 341.984 147.35C341.807 147.277 341.609 147.241 341.391 147.241ZM347.492 157.608C347.122 157.608 346.776 157.54 346.453 157.405C346.13 157.269 345.849 157.084 345.609 156.85C345.37 156.61 345.18 156.332 345.039 156.014C344.904 155.691 344.836 155.345 344.836 154.975C344.836 154.605 344.904 154.261 345.039 153.944C345.18 153.621 345.37 153.342 345.609 153.108C345.849 152.873 346.13 152.689 346.453 152.553C346.776 152.418 347.122 152.35 347.492 152.35C347.862 152.35 348.208 152.418 348.531 152.553C348.859 152.689 349.143 152.873 349.383 153.108C349.628 153.342 349.818 153.621 349.953 153.944C350.094 154.261 350.164 154.605 350.164 154.975C350.164 155.345 350.094 155.691 349.953 156.014C349.818 156.332 349.628 156.61 349.383 156.85C349.143 157.084 348.859 157.269 348.531 157.405C348.208 157.54 347.862 157.608 347.492 157.608ZM347.492 153.483C347.273 153.483 347.076 153.519 346.898 153.592C346.727 153.665 346.578 153.769 346.453 153.905C346.328 154.035 346.232 154.191 346.164 154.373C346.096 154.556 346.062 154.756 346.062 154.975C346.062 155.189 346.096 155.389 346.164 155.577C346.232 155.759 346.328 155.918 346.453 156.053C346.578 156.183 346.727 156.288 346.898 156.366C347.076 156.439 347.273 156.475 347.492 156.475C347.711 156.475 347.909 156.439 348.086 156.366C348.263 156.288 348.414 156.183 348.539 156.053C348.664 155.918 348.76 155.759 348.828 155.577C348.896 155.389 348.93 155.189 348.93 154.975C348.93 154.756 348.896 154.556 348.828 154.373C348.76 154.191 348.664 154.035 348.539 153.905C348.414 153.769 348.263 153.665 348.086 153.592C347.909 153.519 347.711 153.483 347.492 153.483Z" fill="#0B0C0C"/>
<rect x="336" y="115" width="101" height="10" fill="#942514"/>
<path d="M362.389 128.598H363.484L360.877 137H359.389L356.764 128.598H357.9L360.109 136.109H360.209L362.389 128.598ZM364.885 128.598H369.912V129.488H365.916V132.248H369.584V133.139H365.916V136.109H370.141V137H364.885V128.598ZM371.893 128.598H374.758C375.148 128.598 375.514 128.646 375.854 128.744C376.193 128.842 376.488 128.994 376.738 129.201C376.992 129.404 377.191 129.664 377.336 129.98C377.48 130.297 377.553 130.672 377.553 131.105C377.553 131.371 377.516 131.625 377.441 131.867C377.367 132.105 377.26 132.326 377.119 132.529C376.979 132.729 376.803 132.906 376.592 133.062C376.385 133.215 376.146 133.34 375.877 133.438L377.711 137H376.557L374.881 133.643H372.924V137H371.893V128.598ZM374.816 132.74C375.055 132.74 375.275 132.705 375.479 132.635C375.682 132.561 375.857 132.455 376.006 132.318C376.154 132.182 376.27 132.014 376.352 131.814C376.434 131.615 376.475 131.389 376.475 131.135C376.475 130.873 376.434 130.641 376.352 130.438C376.27 130.23 376.154 130.057 376.006 129.916C375.857 129.775 375.682 129.67 375.479 129.6C375.275 129.525 375.055 129.488 374.816 129.488H372.924V132.74H374.816ZM379.492 128.598L381.555 132.582H381.578L383.635 128.598H384.76L382.059 133.566V137H381.027V133.566L378.314 128.598H379.492ZM393.684 133.139H389.26V137H388.229V128.598H389.26V132.248H393.684V128.598H394.721V137H393.684V133.139ZM397.029 128.598H398.061V137H397.029V128.598ZM403.545 136.221C403.85 136.221 404.119 136.182 404.354 136.104C404.592 136.025 404.797 135.922 404.969 135.793C405.145 135.664 405.293 135.516 405.414 135.348C405.535 135.18 405.631 135.006 405.701 134.826C405.775 134.643 405.828 134.461 405.859 134.281C405.895 134.098 405.912 133.928 405.912 133.771V133.426H403.557V132.559H406.832V137H405.9V135.869C405.756 136.1 405.592 136.295 405.408 136.455C405.225 136.615 405.029 136.744 404.822 136.842C404.615 136.939 404.396 137.01 404.166 137.053C403.939 137.096 403.709 137.117 403.475 137.117C402.9 137.117 402.391 137.006 401.945 136.783C401.5 136.561 401.123 136.256 400.814 135.869C400.51 135.482 400.277 135.027 400.117 134.504C399.957 133.98 399.877 133.416 399.877 132.811C399.877 132.209 399.965 131.646 400.141 131.123C400.316 130.596 400.566 130.139 400.891 129.752C401.215 129.361 401.605 129.055 402.062 128.832C402.523 128.605 403.039 128.492 403.609 128.492C403.961 128.492 404.293 128.535 404.605 128.621C404.922 128.703 405.213 128.822 405.479 128.979C405.744 129.131 405.982 129.314 406.193 129.529C406.404 129.74 406.582 129.975 406.727 130.232L405.854 130.689C405.752 130.494 405.631 130.318 405.49 130.162C405.35 130.002 405.188 129.865 405.004 129.752C404.82 129.639 404.613 129.551 404.383 129.488C404.156 129.426 403.906 129.395 403.633 129.395C403.195 129.395 402.811 129.488 402.479 129.676C402.146 129.859 401.867 130.105 401.641 130.414C401.418 130.723 401.25 131.08 401.137 131.486C401.023 131.889 400.967 132.307 400.967 132.74V132.887C400.967 133.32 401.018 133.738 401.119 134.141C401.225 134.543 401.383 134.898 401.594 135.207C401.809 135.512 402.078 135.758 402.402 135.945C402.727 136.129 403.107 136.221 403.545 136.221ZM414.262 133.139H409.838V137H408.807V128.598H409.838V132.248H414.262V128.598H415.299V137H414.262V133.139Z" fill="#505A5F"/>
<path fill-rule="evenodd" clip-rule="evenodd" d="M437 137.452L437 115L438 115L438 137.452L437 137.452Z" fill="black"/>
<path d="M418.961 148.061C419.326 148.061 419.622 148.032 419.852 147.975C420.081 147.913 420.258 147.816 420.383 147.686C420.508 147.556 420.591 147.389 420.633 147.186C420.68 146.978 420.703 146.725 420.703 146.428V146.248H422.031V157.452H420.656V149.225H418.477V148.061H418.961ZM428.914 156.397C429.279 156.397 429.617 156.301 429.93 156.108C430.247 155.915 430.518 155.639 430.742 155.28C430.971 154.915 431.151 154.47 431.281 153.944C431.411 153.413 431.477 152.811 431.477 152.139V151.577C431.477 150.905 431.411 150.306 431.281 149.78C431.151 149.254 430.971 148.808 430.742 148.444C430.518 148.079 430.247 147.803 429.93 147.616C429.617 147.423 429.279 147.327 428.914 147.327C428.544 147.327 428.203 147.423 427.891 147.616C427.578 147.803 427.307 148.079 427.078 148.444C426.854 148.808 426.677 149.254 426.547 149.78C426.417 150.306 426.352 150.905 426.352 151.577V152.139C426.352 152.811 426.417 153.413 426.547 153.944C426.677 154.47 426.854 154.915 427.078 155.28C427.307 155.639 427.578 155.915 427.891 156.108C428.203 156.301 428.544 156.397 428.914 156.397ZM428.914 146.108C429.393 146.108 429.826 146.183 430.211 146.334C430.596 146.485 430.935 146.694 431.227 146.959C431.523 147.22 431.776 147.532 431.984 147.897C432.198 148.261 432.372 148.657 432.508 149.084C432.643 149.506 432.742 149.954 432.805 150.428C432.867 150.902 432.898 151.381 432.898 151.866C432.898 152.35 432.867 152.829 432.805 153.303C432.742 153.772 432.643 154.22 432.508 154.647C432.372 155.069 432.198 155.462 431.984 155.827C431.776 156.186 431.523 156.498 431.227 156.764C430.935 157.03 430.596 157.238 430.211 157.389C429.826 157.535 429.393 157.608 428.914 157.608C428.435 157.608 428.003 157.535 427.617 157.389C427.232 157.238 426.891 157.03 426.594 156.764C426.302 156.498 426.049 156.186 425.836 155.827C425.628 155.462 425.456 155.069 425.32 154.647C425.185 154.22 425.086 153.772 425.023 153.303C424.961 152.829 424.93 152.35 424.93 151.866C424.93 151.381 424.961 150.902 425.023 150.428C425.086 149.954 425.185 149.506 425.32 149.084C425.456 148.657 425.628 148.261 425.836 147.897C426.049 147.532 426.302 147.22 426.594 146.959C426.891 146.694 427.232 146.485 427.617 146.334C428.003 146.183 428.435 146.108 428.914 146.108ZM438.961 156.397C439.326 156.397 439.664 156.301 439.977 156.108C440.294 155.915 440.565 155.639 440.789 155.28C441.018 154.915 441.198 154.47 441.328 153.944C441.458 153.413 441.523 152.811 441.523 152.139V151.577C441.523 150.905 441.458 150.306 441.328 149.78C441.198 149.254 441.018 148.808 440.789 148.444C440.565 148.079 440.294 147.803 439.977 147.616C439.664 147.423 439.326 147.327 438.961 147.327C438.591 147.327 438.25 147.423 437.938 147.616C437.625 147.803 437.354 148.079 437.125 148.444C436.901 148.808 436.724 149.254 436.594 149.78C436.464 150.306 436.398 150.905 436.398 151.577V152.139C436.398 152.811 436.464 153.413 436.594 153.944C436.724 154.47 436.901 154.915 437.125 155.28C437.354 155.639 437.625 155.915 437.938 156.108C438.25 156.301 438.591 156.397 438.961 156.397ZM438.961 146.108C439.44 146.108 439.872 146.183 440.258 146.334C440.643 146.485 440.982 146.694 441.273 146.959C441.57 147.22 441.823 147.532 442.031 147.897C442.245 148.261 442.419 148.657 442.555 149.084C442.69 149.506 442.789 149.954 442.852 150.428C442.914 150.902 442.945 151.381 442.945 151.866C442.945 152.35 442.914 152.829 442.852 153.303C442.789 153.772 442.69 154.22 442.555 154.647C442.419 155.069 442.245 155.462 442.031 155.827C441.823 156.186 441.57 156.498 441.273 156.764C440.982 157.03 440.643 157.238 440.258 157.389C439.872 157.535 439.44 157.608 438.961 157.608C438.482 157.608 438.049 157.535 437.664 157.389C437.279 157.238 436.938 157.03 436.641 156.764C436.349 156.498 436.096 156.186 435.883 155.827C435.674 155.462 435.503 155.069 435.367 154.647C435.232 154.22 435.133 153.772 435.07 153.303C435.008 152.829 434.977 152.35 434.977 151.866C434.977 151.381 435.008 150.902 435.07 150.428C435.133 149.954 435.232 149.506 435.367 149.084C435.503 148.657 435.674 148.261 435.883 147.897C436.096 147.532 436.349 147.22 436.641 146.959C436.938 146.694 437.279 146.485 437.664 146.334C438.049 146.183 438.482 146.108 438.961 146.108ZM453.219 146.248H454.5L447.68 157.452H446.398L453.219 146.248ZM447.438 151.373C447.068 151.373 446.721 151.306 446.398 151.17C446.081 151.035 445.799 150.85 445.555 150.616C445.315 150.376 445.125 150.095 444.984 149.772C444.849 149.449 444.781 149.103 444.781 148.733C444.781 148.363 444.849 148.019 444.984 147.702C445.125 147.379 445.315 147.1 445.555 146.866C445.799 146.631 446.081 146.446 446.398 146.311C446.721 146.176 447.068 146.108 447.438 146.108C447.812 146.108 448.161 146.176 448.484 146.311C448.807 146.446 449.089 146.631 449.328 146.866C449.573 147.1 449.763 147.379 449.898 147.702C450.039 148.019 450.109 148.363 450.109 148.733C450.109 149.103 450.039 149.449 449.898 149.772C449.763 150.095 449.573 150.376 449.328 150.616C449.089 150.85 448.807 151.035 448.484 151.17C448.161 151.306 447.812 151.373 447.438 151.373ZM447.438 147.241C447.224 147.241 447.029 147.277 446.852 147.35C446.68 147.423 446.531 147.527 446.406 147.663C446.281 147.793 446.185 147.949 446.117 148.131C446.049 148.314 446.016 148.514 446.016 148.733C446.016 148.946 446.049 149.147 446.117 149.334C446.185 149.517 446.281 149.676 446.406 149.811C446.531 149.941 446.68 150.045 446.852 150.123C447.029 150.196 447.224 150.233 447.438 150.233C447.656 150.233 447.854 150.196 448.031 150.123C448.214 150.045 448.367 149.941 448.492 149.811C448.617 149.676 448.714 149.517 448.781 149.334C448.849 149.147 448.883 148.946 448.883 148.733C448.883 148.514 448.849 148.314 448.781 148.131C448.714 147.949 448.617 147.793 448.492 147.663C448.367 147.527 448.214 147.423 448.031 147.35C447.854 147.277 447.656 147.241 447.438 147.241ZM453.539 157.608C453.169 157.608 452.823 157.54 452.5 157.405C452.177 157.269 451.896 157.084 451.656 156.85C451.417 156.61 451.227 156.332 451.086 156.014C450.951 155.691 450.883 155.345 450.883 154.975C450.883 154.605 450.951 154.261 451.086 153.944C451.227 153.621 451.417 153.342 451.656 153.108C451.896 152.873 452.177 152.689 452.5 152.553C452.823 152.418 453.169 152.35 453.539 152.35C453.909 152.35 454.255 152.418 454.578 152.553C454.906 152.689 455.19 152.873 455.43 153.108C455.674 153.342 455.865 153.621 456 153.944C456.141 154.261 456.211 154.605 456.211 154.975C456.211 155.345 456.141 155.691 456 156.014C455.865 156.332 455.674 156.61 455.43 156.85C455.19 157.084 454.906 157.269 454.578 157.405C454.255 157.54 453.909 157.608 453.539 157.608ZM453.539 153.483C453.32 153.483 453.122 153.519 452.945 153.592C452.773 153.665 452.625 153.769 452.5 153.905C452.375 154.035 452.279 154.191 452.211 154.373C452.143 154.556 452.109 154.756 452.109 154.975C452.109 155.189 452.143 155.389 452.211 155.577C452.279 155.759 452.375 155.918 452.5 156.053C452.625 156.183 452.773 156.288 452.945 156.366C453.122 156.439 453.32 156.475 453.539 156.475C453.758 156.475 453.956 156.439 454.133 156.366C454.31 156.288 454.461 156.183 454.586 156.053C454.711 155.918 454.807 155.759 454.875 155.577C454.943 155.389 454.977 155.189 454.977 154.975C454.977 154.756 454.943 154.556 454.875 154.373C454.807 154.191 454.711 154.035 454.586 153.905C454.461 153.769 454.31 153.665 454.133 153.592C453.956 153.519 453.758 153.483 453.539 153.483Z" fill="#0B0C0C"/>
<path d="M0 0V-1H-1V0H0ZM468 0H469V-1H468V0ZM468 184.452V185.452H469V184.452H468ZM0 184.452H-1V185.452H0V184.452ZM0 1H468V-1H0V1ZM467 0V184.452H469V0H467ZM468 183.452H0V185.452H468V183.452ZM1 184.452V0H-1V184.452H1Z" fill="#B1B4B6"/>
</svg>
